<svg xmlns:svg="http://www.w3.org/2000/svg" xmlns="http://www.w3.org/2000/svg" width="25" height="25"><path d="M129.3 338.5C126.7 337.5 122.7 335 120.3 332.7 100.3 313.7 117.7 280.5 144.5 287 155.6 289.6 164.9 301.5 164.9 313.2 164.9 319.9 161.3 327.8 155.8 332.8 148.1 339.9 138.9 341.9 129.3 338.5zM146.8 322.1C149.6 319.3 150.3 317.5 150.3 313.3 150.3 310.4 149.5 306.9 148.6 305.5 144.3 299.4 133.8 298.9 128.4 304.6 126.1 307 125.5 309 125.5 313.8 125.5 318.9 126 320.3 128.9 322.8 134 327.1 142.1 326.9 146.8 322.1zM334.1 338.5C323.4 334.7 316.4 324.4 316.4 312.5 316.3 304.5 318.8 299.3 325.4 293.1 342.3 277.6 369.6 289.8 369.6 313 369.6 331.4 351.3 344.6 334.1 338.5zM351.4 322C359.4 314 354.3 300.2 343.4 300.2 331.1 300.2 325.4 314.8 334.7 322.6 340 327.1 346.5 326.9 351.4 322zM49.4 321.8C45.5 318.8 44.9 313.6 44.9 282L44.9 250.6 48.4 246.7 51.8 242.7 53.3 211.2C55.4 162.9 55.3 163.6 61.8 160.9 63.9 160 122.4 159.7 246.7 160L428.4 160.3 434.5 163.1C442.2 166.6 447.8 172 451.9 179.7L455.1 185.7 455.1 242.5 455.1 299.3 416.3 311.3C395 317.9 377.2 323.3 376.7 323.3 376.3 323.3 376.2 320.1 376.6 316.2 378.5 295.6 362.9 278.4 342.4 278.4 333.9 278.4 326 281.9 319.3 288.7 311.4 296.5 308.5 304.4 309.4 315.6L310 323.3 239.8 323.3 169.6 323.3 170.5 320.5C172.2 315.4 171.3 304.5 168.6 298.8 158.7 277.8 132.6 272.4 115.1 287.8 107.9 294.1 104.9 301.7 104.9 313.3L104.9 323.3 78.2 323.3C58.6 323.3 50.9 322.9 49.4 321.8zM94.7 302.6C96.9 301.4 97 299.5 97 246.5 97 205.5 96.6 191.3 95.6 190.2 94.7 189.3 90.3 188.8 84.1 188.8 75.3 188.8 73.9 189.1 72.8 191.2 71.9 192.8 71.6 211.1 71.8 247.6 72.1 294 72.4 301.7 74 302.7 76.4 304.2 91.7 304.2 94.7 302.6zM186.2 234.7C188.3 232.4 188.5 230.1 188.5 213 188.5 195.9 188.3 193.6 186.2 191.3 184 188.8 182.9 188.8 151.4 188.8 124.1 188.8 118.7 189.1 117.2 190.6 114.5 193.3 113.6 201.7 114.3 218 115.1 238.8 112 237.2 151.5 237.2 182.9 237.2 184 237.2 186.2 234.7zM269.8 235.5C271.9 233.9 272.1 232.2 272.1 213.3 272.1 197.7 271.7 192.3 270.5 190.8 269 189 265.1 188.8 236.2 188.8 205.3 188.8 203.5 188.9 201.2 191.2 199 193.4 198.8 195.2 198.8 212.7 198.8 228.1 199.2 232.4 200.7 234.5 202.6 237.2 202.9 237.2 235 237.2 261.1 237.2 267.9 236.9 269.8 235.5zM352.3 234.6C355 232.1 355.1 231.3 355.1 212.2 355.1 193.3 355 192.5 352.4 190.6 350.2 189.1 344.8 188.8 318.5 188.8 278.8 188.8 282.1 186.6 282.6 213 283 229.8 283.3 232.4 285.3 234.7 287.6 237.1 288.7 237.2 318.6 237.2 348.7 237.2 349.6 237.2 352.3 234.6zM438.1 234.5C440.9 230.5 440.7 203.1 437.8 197.3 433.8 189.4 430.8 188.8 399.2 188.8L371 188.8 368.5 192C366.3 194.9 366 196.8 366 213.2 366 230.8 366.1 231.4 369 234.3L372 237.2 404.1 237.2C435.9 237.2 436.2 237.2 438.1 234.5z" fill="#000"/></svg>